<?xml version="1.0" encoding="UTF-8"?>
<svg xmlns="http://www.w3.org/2000/svg" width="800" height="800" viewBox="0 0 800 800" fill="none">
    <g clip-path="url(#clip0_38_97)">
        <rect width="800" height="800" rx="400" fill="white"></rect>
        <path fill-rule="evenodd" clip-rule="evenodd"
              d="M337.056 106.513C319.675 106.513 306.643 116.848 306.752 134.796H322.906C322.684 127.617 327.361 120.653 337.056 120.653C344.407 120.653 349.087 125.439 349.087 131.531C349.087 137.843 343.959 141.323 335.72 145.241C324.913 150.352 318.451 152.745 306.752 156.55V177.22H366.909V163.077H328.588C334.171 160.803 339.607 158.308 344.52 156.007C357.552 149.918 365.238 143.063 365.238 130.773C365.238 115.976 353.877 106.513 337.056 106.513ZM391.419 121.74H422.612V107.6H375.822V177.22H391.419V121.74ZM447.121 107.6H431.525V177.22H447.009L476.085 132.728V177.22H491.682V107.6H476.085L447.121 152.092V107.6ZM570 151.111H553.846C551.395 158.837 543.932 164.167 535.132 164.167C522.318 164.167 513.962 153.398 513.962 142.41C513.962 131.422 522.096 120.653 535.576 120.653C544.489 120.653 551.395 125.986 553.846 133.709H570C567.662 118.154 555.074 106.513 535.132 106.513C513.074 106.513 498.366 121.634 498.366 142.41C498.366 163.186 513.074 178.308 535.132 178.308C555.074 178.308 567.662 166.889 570 151.111Z"
              fill="#262626"></path>
        <path d="M-7 -7H807V807H-7V-7Z" fill="#19AA1E"></path>
        <path fill-rule="evenodd" clip-rule="evenodd" d="M-7 -7H807V261L-7 133.386V-7Z" fill="#FFB919"></path>
        <path fill-rule="evenodd" clip-rule="evenodd" d="M-7 718.047L807 591V807H-7V718.047Z" fill="#82D714"></path>
        <path fill-rule="evenodd" clip-rule="evenodd"
              d="M-7 117L277.134 161.452C312.503 139.028 354.58 126.73 399.988 126.73C462.882 126.73 519.413 150.314 560.553 191.703C565.733 196.939 570.616 202.396 575.228 208.076L807 244.329V276.556L598.758 243.959C614.344 273.791 622.509 306.949 622.559 340.616C622.559 384.277 612.817 427.815 592.642 471.526L592.05 472.859L583.466 491.233H563.241C521.411 491.233 493.688 503.753 475.535 525.954C461.303 543.364 453.066 566.874 450.303 592.508L450.204 593.298L449.81 597.398L449.637 599.176L449.292 602.658C448.231 614.116 447.541 623.822 447.171 631.724L807 575.419V607.646L-7 735V702.773L353.224 646.418L353.076 639.182L353.027 637.157L352.977 636.095L352.928 634.49C352.607 625.723 351.793 614.487 350.511 600.855L350.264 598.262L349.82 593.792C347.255 568.01 339.141 544.229 324.909 526.547C306.978 504.198 279.527 491.48 238.016 491.233H216.509L207.95 472.859C187.38 428.704 177.416 384.722 177.416 340.616C177.416 285.15 199.885 231.512 239.447 191.703L242.9 188.32L-7 149.203V117Z"
              fill="white"></path>
        <path fill-rule="evenodd" clip-rule="evenodd"
              d="M400 159C513.785 159 591 246.408 591 340.718C591 378.579 582.728 417.97 563.418 459.282C451.485 459.282 423.853 539.295 418.619 589.679L418.273 593.007C416.52 611.001 415.482 625.421 415.211 636.267L384.888 641V640.014C384.466 623.995 383.378 608 381.628 592.07L381.554 591.183C376.715 540.922 349.676 459.282 236.607 459.282C217.272 417.97 209 378.579 209 340.718C209 246.408 286.24 159 400 159Z"
              fill="#0073FA"></path>
    </g>
    <defs>
        <clipPath id="clip0_38_97">
            <rect width="800" height="800" rx="400" fill="white"></rect>
        </clipPath>
    </defs>
</svg>
