<?xml version="1.0" encoding="UTF-8"?>
<svg xmlns="http://www.w3.org/2000/svg" width="1000" height="1000" viewBox="0 0 1000 1000" fill="none">
    <path d="M489.5 990C759.843 990 979 770.62 979 500C979 229.38 759.843 10 489.5 10C219.157 10 0 229.38 0 500C0 770.62 219.157 990 489.5 990Z"
          fill="#40A459"></path>
    <path d="M488.925 10C485.195 10 481.485 10.0575 477.774 10.14C476.83 10.1611 475.888 10.1822 474.946 10.211C471.411 10.3088 467.883 10.4393 464.368 10.6119C463.458 10.656 462.555 10.7193 461.647 10.7673C458.973 10.915 456.304 11.0838 453.64 11.2737C452.298 11.3696 450.959 11.4617 449.622 11.5672C446.533 11.8127 443.45 12.0851 440.375 12.3882C438.784 12.5455 437.202 12.7201 435.619 12.8908C433.718 13.098 431.82 13.3147 429.925 13.543C428.283 13.7406 426.636 13.9305 425 14.1434C665.454 45.4625 851.151 251.042 851.151 499.999C851.151 748.956 665.456 954.537 425.002 985.857C426.64 986.069 428.283 986.261 429.927 986.457C431.82 986.685 433.72 986.902 435.621 987.109C437.206 987.282 438.79 987.456 440.377 987.612C443.452 987.915 446.533 988.187 449.624 988.433C450.959 988.54 452.3 988.632 453.641 988.726C456.304 988.916 458.973 989.087 461.649 989.233C462.557 989.284 463.462 989.344 464.37 989.388C467.886 989.561 471.414 989.691 474.948 989.789C475.89 989.816 476.832 989.839 477.776 989.86C481.483 989.942 485.197 990 488.927 990C759.588 990 979 770.617 979 499.995C979 229.374 759.586 10 488.925 10Z"
          fill="#378B4E"></path>
    <path d="M425 457.33L629.419 340.157C629.419 340.157 853.032 387.732 904.642 293.667L920.919 264L935.074 294.734C964.464 358.548 980 429.491 980 499.892C980 662.168 899.528 813.811 764.735 905.535L750.828 915L425 457.33Z"
          fill="#898790"></path>
    <path d="M979 499.547C979 414.973 957.549 335.408 919.793 266L904.814 293.338C886.711 326.378 862.886 360.162 839.14 390.554C847.113 425.606 851.35 462.081 851.35 499.547C851.35 636.224 795.323 759.795 705 848.583L750.69 915C887.959 828.316 979 673.919 979 499.547Z"
          fill="#7A797F"></path>
    <path d="M489.319 990C321.843 990 167.581 905.58 76.6692 764.175L68 750.693L340.44 521L654 961.71L634.019 968.193C587.274 982.663 538.591 990 489.319 990Z"
          fill="#3D9AE3"></path>
    <path d="M656 961.812L622.79 914C564.167 951.28 496.938 977.47 425 986.892C445.915 989.63 467.44 990 489.099 990C547.49 990 604.071 980.657 656 961.812Z"
          fill="#1D81CE"></path>
    <path d="M341 521.743L426.04 458L753 913.856L737.108 923.177C714.656 936.347 691.027 947.782 666.875 957.166L654.434 962L341 521.743Z"
          fill="white"></path>
    <path d="M654.366 962C689.23 949.703 722.287 933.62 753 914.211L705.848 849C680.188 874.129 651.736 896.462 621 915.512L654.366 962Z"
          fill="#E0E0E3"></path>
    <path d="M59.0485 735.965C45.5832 711.618 34.1464 685.975 25.0569 659.748L21 644.32L596.666 245L682 308.785L67.3889 751L59.0485 735.965Z"
          fill="#FFCE00"></path>
    <path d="M674.676 623.756C644.505 592.357 494 430.978 494 337.317C494 231.272 580.58 145 687 145C793.42 145 880 231.272 880 337.317C880 430.915 729.493 592.344 699.322 623.756C692.607 630.747 681.393 630.749 674.676 623.756Z"
          fill="#CD2900"></path>
    <path d="M686.5 402C638.802 402 600 363.42 600 316C600 268.58 638.804 230 686.5 230C734.198 230 773 268.58 773 316C773 363.42 734.198 402 686.5 402Z"
          fill="#891D00"></path>
    <path d="M277.001 367C332.69 367 378 321.69 378 265.998C378 257.191 370.861 250.05 362.052 250.05H298.263C289.457 250.05 282.316 257.189 282.316 265.998C282.316 274.805 289.455 281.946 298.263 281.946H344.246C337.03 312.389 309.616 335.106 276.999 335.106C238.897 335.106 207.895 304.103 207.895 266C207.895 227.897 238.897 196.894 276.999 196.894C293.847 196.894 310.072 203.025 322.688 214.154C329.297 219.982 339.373 219.348 345.197 212.745C351.023 206.14 350.391 196.062 343.788 190.236C325.34 173.962 301.621 165 276.999 165C221.31 165 176 210.31 176 266.002C176 321.694 221.31 367 277.001 367Z"
          fill="white"></path>
</svg>
