<svg width="48" height="48" viewBox="0 0 48 48" xmlns="http://www.w3.org/2000/svg">
    <defs>
        <mask id="mask0" maskUnits="userSpaceOnUse" x="0" y="0" width="48" height="48">
            <rect x="0" y="0" width="48" height="48" fill="white"></rect>
            <path d="M11.2 32.139C11.2 31.0158 11.2 29.9294 11.2 28.8797C11.2 27.8195 11.2 26.6386 11.2 25.337V23.7625C11.2 22.5553 11.2 21.3429 11.2 20.1253C11.2 18.9076 11.2 17.6743 11.2 16.4251L15.1521 16.1889L15.3568 19.0861H15.7504C16.1598 18.2358 16.6112 17.5903 17.1045 17.1494C17.5979 16.698 18.1017 16.3936 18.6161 16.2362C19.1304 16.0787 19.6238 16 20.0961 16C20.3376 16 20.6052 16.021 20.8992 16.063C21.2036 16.105 21.487 16.1784 21.7494 16.2834L21.34 20.8496C20.9306 20.8181 20.5633 20.7918 20.2379 20.7708C19.9124 20.7499 19.5661 20.7394 19.1987 20.7394C18.9047 20.7394 18.6003 20.7708 18.2854 20.8338C17.981 20.8968 17.6819 21.0228 17.3879 21.2117C17.094 21.4007 16.8211 21.6631 16.5692 21.999C16.3173 22.3349 16.0968 22.7705 15.9079 23.3059V25.5889C15.9079 26.7646 15.9079 27.872 15.9079 28.9112C15.9079 29.9399 15.9079 31.0158 15.9079 32.139H11.2Z"
                  fill="black"></path>
            <path d="M32.0292 32.4854C30.2447 32.4854 28.7331 32.1338 27.4945 31.4305C26.2559 30.7167 25.3111 29.7457 24.6603 28.5176C24.0095 27.2894 23.6841 25.8881 23.6841 24.3136C23.6841 22.7285 23.9833 21.3114 24.5816 20.0623C25.1904 18.8027 26.0879 17.816 27.2741 17.1022C28.4707 16.3779 29.956 16.0157 31.73 16.0157C32.3598 16.0157 32.9791 16.063 33.588 16.1575C34.2073 16.2519 34.7899 16.3831 35.3357 16.5511C35.8815 16.719 36.3696 16.9185 36.8 17.1494L36.4536 21.2117C35.8553 20.8653 35.3042 20.6081 34.8004 20.4402C34.307 20.2617 33.8609 20.1463 33.462 20.0938C33.0631 20.0308 32.7062 19.9993 32.3913 19.9993C31.2052 19.9993 30.2552 20.3772 29.5414 21.133C28.8381 21.8783 28.4865 22.8912 28.4865 24.1718C28.4865 25.0431 28.6597 25.8146 29.0061 26.4864C29.3629 27.1477 29.8825 27.6673 30.5648 28.0452C31.2576 28.4231 32.1079 28.612 33.1156 28.612C33.504 28.612 33.8924 28.5753 34.2808 28.5018C34.6691 28.4283 35.0523 28.3181 35.4302 28.1712C35.8186 28.0242 36.1859 27.8353 36.5323 27.6043L36.7685 31.6666C36.4116 31.8241 35.997 31.9658 35.5246 32.0918C35.0628 32.2072 34.5432 32.3017 33.9658 32.3752C33.3885 32.4487 32.743 32.4854 32.0292 32.4854Z"
                  fill="black"></path>
        </mask>
    </defs>
    <circle cx="24" cy="24" r="24" fill="#ff5742" mask="url(#mask0)"></circle>
</svg>
